# xmcd CD database file
#
# Track frame offsets:
#	150
#	19553
#	35481
#	54956
#	71873
#	86578
#	101345
#	115101
#	132497
#	150170
#	164279
#	182843
#	200990
#	220106
#	237448
#	253203
#	267207
#	283941
#	301011
#	317574
#	334333
#
# Disc length: 4651 seconds
#
# Revision: 2
# Processed by: cddbd v1.5.2PL0 Copyright (c) Steve Scherf et al.
# Submitted via: CDex 1.40Beta8
#
DISCID=2d122915
DTITLE=Various Artist - Bravo Hits 60 CD2
DYEAR=2008
DGENRE=Pop
TTITLE0=Ich and Ich - Stark
TTITLE1=Stefanie Heinzmann - My Man Is A Mean Man
TTITLE2=Culcha Candela - Chica
TTITLE3=Monrose - What You Don't Know
TTITLE4=Jimi Blue - All Alone
TTITLE5=Mina - Complete
TTITLE6=Myron - Say You Want Me
TTITLE7=Stanfour - For All Lovers
TTITLE8=Sasha - Hide and Seek
TTITLE9=Ashley Tisdale - He Said She Said
TTITLE10=Kate Nash - Foundations
TTITLE11=Tarja - Die Alive
TTITLE12=Nightwish - Bye Bye Beautiful
TTITLE13=Hermes House Band - The Rhythm Of The Night
TTITLE14=Fragma - Toca's Miracle
TTITLE15=Kate Ryan - Voyage Voyage
TTITLE16=Paul Van Dyk feat. Rea Garvey - Let Go
TTITLE17=Scooter - Jumping All Over The World
TTITLE18=Cascada - What Hurts The Most
TTITLE19=Alex C. feat. Yass - Doktorspiele
TTITLE20=Olaf Henning - Cowboy and Indianer (Komm hol das Lasso raus!)
EXTD=YEAR: 2008 ID3G: 13
EXTT0=
EXTT1=
EXTT2=
EXTT3=
EXTT4=
EXTT5=
EXTT6=
EXTT7=
EXTT8=
EXTT9=
EXTT10=
EXTT11=
EXTT12=
EXTT13=
EXTT14=
EXTT15=
EXTT16=
EXTT17=
EXTT18=
EXTT19=
EXTT20=
PLAYORDER=
